<svg xmlns="http://www.w3.org/2000/svg" width="64pt" height="64pt" viewBox="0 0 64 64" style="isolation:isolate"><defs><clipPath id="a"><rect width="64" height="64"/></clipPath></defs><g clip-path="url(#a)"><path d=" M 60.898 59.495 L 58.745 61.648 C 58.354 62.038 57.721 62.038 57.331 61.648 L 2.312 6.629 C 1.922 6.239 1.922 5.606 2.312 5.215 L 4.465 3.062 C 4.856 2.672 5.489 2.672 5.879 3.062 L 60.898 58.081 C 61.288 58.471 61.288 59.104 60.898 59.495 Z "/><path fill-rule="evenodd" d=" M 51.309 44.075 C 55.255 41.761 59.13 37.976 61.56 33.818 L 61.56 33.818 C 62.147 32.815 62.147 31.185 61.56 30.182 C 56.474 21.479 45.056 14.409 32 14.409 C 28.429 14.409 24.98 14.938 22.71 15.604 C 22.18 15.759 22.067 16.202 22.457 16.592 L 25.667 19.802 C 26.058 20.193 26.777 20.312 27.272 20.069 C 28.073 19.676 29.982 19.207 32 19.207 C 39.06 19.207 44.793 24.94 44.793 32 C 44.793 34.018 44.324 35.927 43.931 36.728 C 43.688 37.223 43.807 37.942 44.198 38.333 L 49.739 43.874 C 50.129 44.264 50.832 44.354 51.309 44.075 Z  M 43.753 47.654 C 40.781 48.756 36.487 49.591 32 49.591 C 18.944 49.591 7.526 42.521 2.44 33.818 C 1.853 32.815 1.853 31.185 2.44 30.182 C 5.216 25.432 9.877 21.169 14.767 18.724 C 15.261 18.477 15.978 18.593 16.368 18.983 L 21.036 23.651 C 21.426 24.041 21.475 24.717 21.145 25.159 C 20.151 26.491 19.207 29.136 19.207 32 L 19.207 32 C 19.207 39.06 24.94 44.793 32 44.793 C 34.864 44.793 37.509 43.849 38.841 42.855 C 39.283 42.525 39.959 42.574 40.349 42.964 L 43.984 46.599 C 44.374 46.989 44.271 47.462 43.753 47.654 Z "/><path fill-rule="evenodd" d=" M 22.959 26.965 C 22.376 27.807 21.7 29.825 21.7 32 C 21.7 37.685 26.315 42.3 32 42.3 C 34.175 42.3 36.193 41.624 37.035 41.041 C 37.488 40.727 37.54 40.155 37.15 39.765 L 24.235 26.85 C 23.845 26.46 23.273 26.512 22.959 26.965 Z  M 29.196 22.036 C 29.423 21.948 30.683 21.7 32 21.7 C 37.685 21.7 42.3 26.315 42.3 32 C 42.3 33.317 42.052 34.577 41.964 34.804 C 41.763 35.318 41.284 35.419 40.893 35.028 L 28.972 23.107 C 28.581 22.716 28.682 22.237 29.196 22.036 Z "/></g></svg>